<svg height="512" width="512" xmlns="http://www.w3.org/2000/svg"><path d="M191 267.2a6 6 0 006-6v-51.957a6 6 0 00-12 0V261.2a6 6 0 006 6z"/><path d="M418.611 442H393V22.734A5.417 5.417 0 00387.439 17H124.561A5.417 5.417 0 00119 22.734V442H93.389c-3.313 0-6.389 2.391-6.389 5.7v41.562c0 3.313 3.076 5.734 6.389 5.734h325.222c3.313 0 6.389-2.421 6.389-5.734V447.7c0-3.309-3.076-5.7-6.389-5.7zM131 29h250v413h-29V64.3a6.365 6.365 0 00-6.123-6.3H166.123A6.365 6.365 0 00160 64.3V442h-29zm209 413H172V70h168zm73 41H99v-29h314z"/></svg>