<svg xmlns="http://www.w3.org/2000/svg" viewBox="0 0 512 512"><path d="M256 64c-63.749 0-116.539 27.751-153.514 61.856l1.762-105.739C104.432 9.191 95.716.178 84.784 0h-.336C73.673 0 64.845 8.65 64.66 19.464l-2.639 158.351a19.801 19.801 0 005.806 14.331 19.745 19.745 0 0014.331 5.793L236.55 195.3c10.926-.191 19.635-9.198 19.451-20.13-.185-10.814-9.013-19.457-19.787-19.457h-.343l-109.13 1.867c30.515-28.919 75.54-53.991 129.26-53.991 110.113 0 184.082 95.182 184.082 184.082 0 89.217-73.969 184.742-184.082 184.742-120.109 0-184.082-107.296-184.082-184.742 0-10.933-8.861-19.794-19.794-19.794s-19.795 8.86-19.795 19.793C32.33 396.008 122.207 512 256 512s223.67-115.992 223.67-224.336C479.67 179.649 389.793 64 256 64z"/></svg>